/vscmnt/brussel_pixiu_data/_data_brussel/112/vsc11236/PredSimResults/SUBJ07mtu3D/weighted-expIG/worker_05.mot
version=1
nRows=10
nColumns=50
inDegrees=yes
endheader
                time	         pelvis_tilt	         pelvis_list	     pelvis_rotation	           pelvis_tx	           pelvis_ty	           pelvis_tz	       hip_flexion_r	     hip_adduction_r	      hip_rotation_r	        knee_angle_r	       ankle_angle_r	         mtp_angle_r	       hip_flexion_l	     hip_adduction_l	      hip_rotation_l	        knee_angle_l	       ankle_angle_l	         mtp_angle_l	    lumbar_extension	      lumbar_bending	     lumbar_rotation	 ercspn_r/activation	 intobl_r/activation	 extobl_r/activation	    abd_r/activation	    add_r/activation	hamstrings_r/activation	bifemsh_r/activation	glut_max_r/activation	iliopsoas_r/activation	rect_fem_r/activation	  vasti_r/activation	gastroc_r/activation	 soleus_r/activation	tib_ant_r/activation	 ercspn_l/activation	 intobl_l/activation	 extobl_l/activation	    abd_l/activation	    add_l/activation	hamstrings_l/activation	bifemsh_l/activation	glut_max_l/activation	iliopsoas_l/activation	rect_fem_l/activation	  vasti_l/activation	gastroc_l/activation	 soleus_l/activation	tib_ant_l/activation	
          1.77457893	         -6.66829438	          3.80858897	        -10.12828569	          2.00527419	          0.84671878	          0.01528764	        -11.67389248	         -4.30303269	          6.10067393	         -6.96719210	          8.92141124	         27.57622303	         31.09425514	         -0.74352388	         -8.58320720	         -4.30197041	          7.08712963	          0.24643945	         -5.52980198	         -1.53547569	          3.18164653	          0.03742418	          0.00999999	          0.00999999	          0.04195573	          0.06246722	          0.03180414	          0.13839129	          0.03881389	          0.41492720	          0.01000000	          0.00999999	          0.30727859	          0.27430588	          0.01715825	          0.09319593	          0.18305724	          0.02943858	          0.01197174	          0.15340339	          0.04900873	          0.18064453	          0.01555387	          0.07539404	          0.01000000	          0.01000000	          0.01406124	          0.00999999	          0.27221759	
          1.78640946	         -6.75244921	          3.64859394	        -10.04959295	          2.02127449	          0.84476007	          0.01485666	        -11.78159928	         -4.16114609	          5.53768914	         -8.71040437	          8.33093840	         29.28950080	         31.24259089	         -0.60118415	         -7.75919596	         -6.18783321	          6.77581145	          0.23737111	         -5.33015105	         -2.00939950	          3.25218208	          0.08883227	          0.00999999	          0.00999999	          0.03504559	          0.11302773	          0.02656598	          0.11559817	          0.03242122	          0.42961985	          0.01000000	          0.01000000	          0.26349790	          0.25801023	          0.01433228	          0.07784651	          0.15956105	          0.02459003	          0.00999999	          0.20955137	          0.04681807	          0.15089228	          0.07772354	          0.06297660	          0.01000000	          0.00999999	          0.02309603	          0.01952443	          0.27958392	
          1.79823998	         -6.81866261	          3.48881614	         -9.90886208	          2.03760123	          0.84299948	          0.01438725	        -11.70974886	         -4.00054138	          4.92449152	        -10.85933191	          7.61524407	         30.98512502	         31.17834868	         -0.46561715	         -6.90662644	         -7.89551709	          6.43004489	          0.23135135	         -5.11231680	         -2.50690574	          3.30171886	          0.11214905	          0.00999999	          0.00999999	          0.02927357	          0.11059504	          0.02368131	          0.09655909	          0.02708143	          0.41479269	          0.01000000	          0.00999999	          0.22009966	          0.23924581	          0.01197175	          0.07517259	          0.13328126	          0.02054004	          0.06022336	          0.20146620	          0.05536441	          0.12604025	          0.10184067	          0.05260432	          0.00999999	          0.00999999	          0.01929211	          0.01630874	          0.32190447	
          1.81007051	         -6.86879234	          3.32488135	         -9.70711771	          2.05403802	          0.84159778	          0.01381672	        -11.39131022	         -3.82262666	          4.26996709	        -13.48681899	          6.71584165	         32.59128293	         30.93889014	         -0.30582317	         -6.13857955	         -9.30820148	          6.00973390	          0.21580351	         -4.89812040	         -3.00932402	          3.32903093	          0.14244263	          0.00999999	          0.00999999	          0.02445219	          0.11710497	          0.02411533	          0.08065576	          0.02262110	          0.39118257	          0.00999999	          0.00999999	          0.18384912	          0.20224326	          0.00999999	          0.08446461	          0.11132977	          0.01715708	          0.10424684	          0.20845702	          0.05225079	          0.10528136	          0.13428674	          0.04394036	          0.00999999	          0.00999999	          0.01611469	          0.01362269	          0.34314910	
          1.82190104	         -6.90268251	          3.16466478	         -9.44945081	          2.07037017	          0.84067785	          0.01315275	        -10.78478367	         -3.64048976	          3.56820623	        -16.62191707	          5.62693613	         33.90551905	         30.61717066	         -0.12213364	         -5.47057474	        -10.61012145	          5.70252460	          0.20357715	         -4.70454654	         -3.52341854	          3.33152409	          0.17160129	          0.00999999	          0.00999999	          0.02042490	          0.12408468	          0.02436935	          0.06737171	          0.01889540	          0.34996677	          0.00999999	          0.00999999	          0.15356908	          0.16893369	          0.00999999	          0.08150928	          0.09299370	          0.01433130	          0.13525405	          0.20242702	          0.04889620	          0.08794146	          0.15188667	          0.03670336	          0.00999999	          0.02351813	          0.01346059	          0.01181396	          0.35393845	
          1.83373156	         -6.92103302	          3.01090532	         -9.13881687	          2.08642805	          0.84033601	          0.01241545	         -9.87442372	         -3.46618816	          2.80570637	        -20.25029853	          4.38154238	         34.60837838	         30.26103886	          0.07501050	         -4.89993412	        -11.85583841	          5.49877650	          0.19154010	         -4.54417818	         -4.05020594	          3.30755273	          0.19053409	          0.00999999	          0.00999999	          0.01706091	          0.14292930	          0.02213295	          0.05627556	          0.01578331	          0.29232706	          0.00999999	          0.00999999	          0.12827617	          0.14111022	          0.00999999	          0.07090668	          0.07767758	          0.01197093	          0.14732639	          0.17592258	          0.04875223	          0.07345746	          0.14299496	          0.03065830	          0.00999999	          0.10785103	          0.01124363	          0.00999999	          0.36290211	
          1.84556209	         -6.92637868	          2.85357458	         -8.77496035	          2.10212626	          0.84067687	          0.01163392	         -8.67558889	         -3.30197913	          1.98105310	        -24.29419590	          2.92755577	         34.49825506	         29.83291888	          0.27383491	         -4.41238609	        -12.95860301	          5.40713981	          0.17878549	         -4.42326025	         -4.57668036	          3.25542928	          0.19646393	          0.00999999	          0.00999999	          0.01425097	          0.15618790	          0.01848765	          0.04883974	          0.01318379	          0.24418063	          0.00999999	          0.00999999	          0.10714901	          0.11786929	          0.00999999	          0.05922832	          0.06488405	          0.00999999	          0.14701283	          0.14694804	          0.04956776	          0.06135898	          0.12587627	          0.02560886	          0.00999999	          0.17634997	          0.01000000	          0.01000000	          0.35914210	
          1.85739261	         -6.92122175	          2.67699834	         -8.35710295	          2.11745300	          0.84172348	          0.01083559	         -7.23740259	         -3.14409291	          1.11862260	        -28.58630278	          1.08177765	         33.65653483	         29.28471862	          0.46106583	         -3.97155366	        -13.83958892	          5.47732795	          0.16895443	         -4.34223779	         -5.08425597	          3.17370998	          0.19453011	          0.00999999	          0.00999999	          0.01190383	          0.16353466	          0.01544273	          0.05763212	          0.01101242	          0.20396395	          0.00999999	          0.00999999	          0.08950151	          0.09845616	          0.00999999	          0.04947338	          0.05419761	          0.00999999	          0.14725142	          0.12274562	          0.04955820	          0.05125312	          0.10514440	          0.02139107	          0.00999999	          0.21182006	          0.00999999	          0.00999999	          0.34559595	
          1.86922314	         -6.90713542	          2.46702751	         -7.88597525	          2.13241525	          0.84340986	          0.01004312	         -5.61795059	         -2.98376349	          0.25485017	        -32.96319647	         -1.15912586	         32.01137508	         28.59880461	          0.62333744	         -3.52897306	        -14.46868584	          5.69939782	          0.16400970	         -4.30079989	         -5.55639052	          3.06103217	          0.19763404	          0.01953741	          0.01000000	          0.00999999	          0.14897108	          0.01289931	          0.04814008	          0.00999999	          0.17037098	          0.00999999	          0.00999999	          0.07476057	          0.08224037	          0.03678055	          0.04132509	          0.04527123	          0.00999999	          0.15340303	          0.10252935	          0.04741281	          0.04281171	          0.08782706	          0.01786795	          0.00999999	          0.21476727	          0.01000001	          0.01000001	          0.31930966	
          1.88105367	         -6.88430737	          2.22480942	         -7.37171507	          2.14700635	          0.84558910	          0.00927233	         -3.87415550	         -2.81911297	         -0.57564844	        -37.33270712	         -3.36049908	         29.13453476	         27.79363828	          0.75680571	         -3.05114299	        -14.87555485	          6.04889560	          0.17058518	         -4.29806988	         -5.98775441	          2.92145394	          0.22298798	          0.05736661	          0.03539845	          0.00999999	          0.12443547	          0.01077478	          0.04021140	          0.00999999	          0.14231079	          0.00999999	          0.00999999	          0.06244746	          0.06869534	          0.15375017	          0.03451883	          0.03781504	          0.00999999	          0.15412337	          0.08564271	          0.04446899	          0.03576060	          0.07594093	          0.01492509	          0.00999999	          0.21574900	          0.00999999	          0.00999999	          0.29187283	
